<svg width="52" height="24" viewBox="0 0 52 24" fill="none" xmlns="http://www.w3.org/2000/svg">
<path d="M0.792 21V18.48L7.272 12.36C7.784 11.896 8.16 11.48 8.4 11.112C8.64 10.744 8.8 10.408 8.88 10.104C8.976 9.8 9.024 9.52 9.024 9.264C9.024 8.592 8.792 8.08 8.328 7.728C7.88 7.36 7.216 7.176 6.336 7.176C5.632 7.176 4.976 7.312 4.368 7.584C3.776 7.856 3.272 8.28 2.856 8.856L0.024 7.032C0.664 6.072 1.56 5.312 2.712 4.752C3.864 4.192 5.192 3.912 6.696 3.912C7.944 3.912 9.032 4.12 9.96 4.536C10.904 4.936 11.632 5.504 12.144 6.24C12.672 6.976 12.936 7.856 12.936 8.88C12.936 9.424 12.864 9.968 12.72 10.512C12.592 11.04 12.32 11.6 11.904 12.192C11.504 12.784 10.912 13.448 10.128 14.184L4.752 19.248L4.008 17.832H13.488V21H0.792ZM13.6824 17.472V14.856L21.6024 4.2H25.6824L17.9304 14.856L16.0344 14.304H29.2584V17.472H13.6824ZM22.7304 21V17.472L22.8504 14.304V11.16H26.5224V21H22.7304ZM28.2958 23.4L36.2158 0.791998H39.5518L31.6318 23.4H28.2958ZM41.2909 21L48.0589 5.688L49.0669 7.368H40.0189L41.7469 5.544V10.104H38.2909V4.2H51.7549V6.72L45.5149 21H41.2909Z" fill="white"/>
</svg>
