<svg width="42" height="50" viewBox="0 0 42 50" fill="none" xmlns="http://www.w3.org/2000/svg">
<path d="M41.7538 23.6651C41.7538 20.945 40.5365 18.5084 38.6239 16.8558C38.1414 7.5143 30.3065 0 20.8708 0C11.4464 0 3.61151 7.51478 3.12896 16.8568C1.21685 18.5089 0 20.9455 0 23.6651C0 28.631 4.0394 32.6704 9.00437 32.6704C9.63475 32.6704 10.1461 32.1596 10.1461 31.5282L10.1466 15.8029C10.1466 15.4994 10.0265 15.2096 9.81235 14.9954C9.59816 14.7812 9.30736 14.6607 9.00486 14.6607C7.79289 14.6607 6.63801 14.9047 5.58169 15.3404C6.76535 7.97537 13.2155 2.2839 20.8825 2.2839C28.5388 2.2839 34.988 7.97537 36.1717 15.3404C35.1153 14.9047 33.9609 14.6607 32.7495 14.6607C32.1191 14.6607 31.6078 15.1715 31.6078 15.8029V31.5282C31.6078 32.1596 32.1191 32.6704 32.7495 32.6704C33.9629 32.6704 35.1197 32.426 36.177 31.9888C35.2124 38.033 30.7017 43.0375 24.7087 44.5569C24.0208 43.2761 22.5658 42.3828 20.8713 42.3828C18.5181 42.3828 16.604 44.0914 16.604 46.1914C16.604 48.2913 18.5181 50 20.8713 50C22.9844 50 24.7312 48.6182 25.0673 46.8154C32.6597 44.9853 38.2302 38.297 38.6283 30.4714C40.5385 28.8184 41.7538 26.3832 41.7538 23.6651ZM7.86217 30.2894C4.69906 29.7454 2.2839 26.9819 2.2839 23.6651C2.2839 20.3483 4.69906 17.5857 7.86266 17.0417L7.86217 30.2894ZM20.8713 47.7161C19.7779 47.7161 18.888 47.032 18.888 46.1914C18.888 45.3507 19.7779 44.6667 20.8713 44.6667C21.9647 44.6667 22.8542 45.3507 22.8542 46.1914C22.8542 47.032 21.9647 47.7161 20.8713 47.7161ZM33.8917 17.0417C37.0548 17.5857 39.4699 20.3483 39.4699 23.6651C39.4699 26.9819 37.0548 29.7454 33.8917 30.2894V17.0417Z" fill="white"/>
</svg>
