<svg width="62" height="50" viewBox="0 0 62 50" fill="none" xmlns="http://www.w3.org/2000/svg">
<path d="M38.4532 0.666748C27.1437 0.666748 17.6955 8.75623 15.5721 19.4483L11.1369 13.9039L8.33337 16.1475L15.5129 25.1219C15.8629 25.5581 16.3834 25.7949 16.9147 25.7949C17.1857 25.7949 17.4603 25.7339 17.717 25.6065L28.4862 20.2218L26.8798 17.0108L18.9663 20.9667C20.4345 11.5185 28.5993 4.25646 38.4532 4.25646C49.3391 4.25646 58.1968 13.1141 58.1968 24.0001C58.1968 34.886 49.3391 43.7437 38.4532 43.7437V47.3334C51.3188 47.3334 61.7865 36.8657 61.7865 24.0001C61.7865 11.1345 51.3188 0.666748 38.4532 0.666748Z" fill="white"/>
<path d="M8.35402 37.1998H10.622V46.9998H8.35402V37.1998ZM3.90202 46.9998H1.63402V37.1998H3.90202V46.9998ZM8.52202 42.9818H3.73402V41.0638H8.52202V42.9818ZM19.505 45.9918V39.0478H16.145L16.103 40.4758C16.075 41.0824 16.033 41.6564 15.977 42.1978C15.9303 42.7391 15.8557 43.2338 15.753 43.6818C15.6503 44.1204 15.515 44.4938 15.347 44.8018C15.1883 45.1098 14.9877 45.3291 14.745 45.4598L12.323 45.1518C12.659 45.1611 12.9343 45.0444 13.149 44.8018C13.373 44.5591 13.5503 44.2184 13.681 43.7798C13.8117 43.3318 13.905 42.8091 13.961 42.2118C14.0263 41.6144 14.073 40.9658 14.101 40.2658L14.213 37.1998H21.745V45.9918H19.505ZM12.001 49.0298L12.015 45.1518H23.117V49.0298H21.017V46.9998H14.101V49.0298H12.001ZM29.2778 47.1678C28.5218 47.1678 27.8171 47.0464 27.1638 46.8038C26.5198 46.5518 25.9598 46.1971 25.4838 45.7398C25.0078 45.2824 24.6344 44.7458 24.3638 44.1298C24.1024 43.5138 23.9718 42.8371 23.9718 42.0998C23.9718 41.3624 24.1024 40.6858 24.3638 40.0698C24.6344 39.4538 25.0078 38.9171 25.4838 38.4598C25.9691 38.0024 26.5338 37.6524 27.1778 37.4098C27.8218 37.1578 28.5264 37.0318 29.2918 37.0318C30.1411 37.0318 30.9064 37.1811 31.5878 37.4798C32.2784 37.7691 32.8571 38.1984 33.3238 38.7678L31.8678 40.1118C31.5318 39.7291 31.1584 39.4444 30.7478 39.2578C30.3371 39.0618 29.8891 38.9638 29.4038 38.9638C28.9464 38.9638 28.5264 39.0384 28.1438 39.1878C27.7611 39.3371 27.4298 39.5518 27.1498 39.8318C26.8698 40.1118 26.6504 40.4431 26.4918 40.8258C26.3424 41.2084 26.2678 41.6331 26.2678 42.0998C26.2678 42.5664 26.3424 42.9911 26.4918 43.3738C26.6504 43.7564 26.8698 44.0878 27.1498 44.3678C27.4298 44.6478 27.7611 44.8624 28.1438 45.0118C28.5264 45.1611 28.9464 45.2358 29.4038 45.2358C29.8891 45.2358 30.3371 45.1424 30.7478 44.9558C31.1584 44.7598 31.5318 44.4658 31.8678 44.0738L33.3238 45.4178C32.8571 45.9871 32.2784 46.4211 31.5878 46.7198C30.9064 47.0184 30.1364 47.1678 29.2778 47.1678Z" fill="white"/>
</svg>
