<svg width="51" height="48" viewBox="0 0 51 48" fill="none" xmlns="http://www.w3.org/2000/svg">
<path d="M18.2927 33.1567L35.8273 15.6221L37.8852 17.68L20.3506 35.2146L18.2927 33.1567Z" fill="white"/>
<path d="M22.2492 23.9503C24.6634 23.9503 26.6275 21.9863 26.6275 19.5721C26.6275 17.1579 24.6634 15.1938 22.2492 15.1938C19.835 15.1938 17.871 17.1579 17.871 19.5721C17.871 21.9863 19.835 23.9503 22.2492 23.9503ZM22.2492 18.1046C23.0584 18.1046 23.7167 18.7629 23.7167 19.5721C23.7167 20.3813 23.0584 21.0396 22.2492 21.0396C21.44 21.0396 20.7817 20.3813 20.7817 19.5721C20.7817 18.7629 21.44 18.1046 22.2492 18.1046Z" fill="white"/>
<path d="M33.9406 26.8853C31.5265 26.8853 29.5624 28.8493 29.5624 31.2635C29.5624 33.6777 31.5265 35.6418 33.9406 35.6418C36.3548 35.6418 38.3189 33.6777 38.3189 31.2635C38.3189 28.8493 36.3548 26.8853 33.9406 26.8853ZM33.9406 32.731C33.1314 32.731 32.4731 32.0727 32.4731 31.2635C32.4731 30.4543 33.1314 29.796 33.9406 29.796C34.7498 29.796 35.4081 30.4543 35.4081 31.2635C35.4081 32.0727 34.7498 32.731 33.9406 32.731Z" fill="white"/>
<path d="M44.1645 2.51996V0.666687H41.2538V2.51996H38.3188V0.666687H35.408V2.51996H32.473V0.666687H29.5623V2.51996H26.6273V0.666687H23.7165V2.51996H20.7815V0.666687H17.8708V2.51996H14.9358V0.666687H12.025V2.51996H6.17925V38.5769H0.333496V42.9551C0.333496 45.3693 2.29757 47.3334 4.71175 47.3334H45.632C48.0462 47.3334 50.0103 45.3693 50.0103 42.9551V2.51996H44.1645ZM4.71175 44.4226C3.90256 44.4226 3.24424 43.7643 3.24424 42.9551V41.4876H41.2538V42.9551C41.2538 43.4696 41.3429 43.9637 41.5067 44.4226H4.71175ZM47.0995 42.9551C47.0995 43.7643 46.4412 44.4226 45.632 44.4226C44.8228 44.4226 44.1645 43.7643 44.1645 42.9551V38.5769H9.09V12.2588H47.0995V42.9551ZM9.09 9.34809V5.43071H12.025V7.28398H14.9358V5.43071H17.8708V7.28398H20.7815V5.43071H23.7165V7.28398H26.6273V5.43071H29.5623V7.28398H32.473V5.43071H35.408V7.28398H38.3188V5.43071H41.2538V7.28398H44.1645V5.43071H47.0995V9.34809H9.09Z" fill="white"/>
</svg>
