<svg width="41" height="42" viewBox="0 0 41 42" fill="none" xmlns="http://www.w3.org/2000/svg">
<rect x="0.396484" y="39.3867" width="53.7624" height="3" rx="1.5" transform="rotate(-45 0.396484 39.3867)" fill="white"/>
<path d="M38.5 33C38.5 36.9974 34.847 40.5 30 40.5C25.153 40.5 21.5 36.9974 21.5 33C21.5 29.0026 25.153 25.5 30 25.5C34.847 25.5 38.5 29.0026 38.5 33Z" stroke="white" stroke-width="3"/>
<path d="M18.5 9C18.5 12.9974 14.847 16.5 10 16.5C5.15301 16.5 1.5 12.9974 1.5 9C1.5 5.00261 5.15301 1.5 10 1.5C14.847 1.5 18.5 5.00261 18.5 9Z" stroke="white" stroke-width="3"/>
</svg>
