<svg width="73" height="48" viewBox="0 0 73 48" fill="none" xmlns="http://www.w3.org/2000/svg">
<path d="M10.6299 36.2798L10.6298 36.28M10.6299 36.2798L10.6302 36.2796L10.6298 36.28M10.6299 36.2798C10.6299 36.2799 10.6298 36.2799 10.6298 36.28M10.6299 36.2798L10.6298 36.28M62.0522 22.9335L61.336 23.4166L61.3944 24.2785L61.7759 29.9076L61.8621 31.1788L63.1305 31.2995L67.0501 31.6723L69.5519 38.0415L68.0217 41.9854L66.6983 40.2202L66.698 40.2198L64.7061 37.5611L64.1643 36.8379L63.2717 36.9788L59.916 37.5086L59.0465 37.6459L58.7423 38.4719L57.3478 42.2585L39.9098 45.794L31.7325 37.215L31.1287 36.5815L30.2801 36.7954L24.426 38.2711L21.7352 34.9599L21.3389 34.4722L20.7134 34.4126L12.1455 33.5959L10.5032 33.4394V35.0892V36.4094L5.50967 41.5146L3.89698 34.4395L5.27644 30.8161L5.8359 29.3465L4.34162 28.8569L1.91742 28.0627L5.67966 12.6936L12.8917 8.28084L18.9295 11.6281L19.2688 11.8162H19.6568H48.6329H48.7091L48.7849 11.8085L62.0734 10.4549L62.6408 10.3971L63.0264 9.97703L67.9631 4.59952L67.9632 4.5994L69.68 2.72966L71.156 15.0996L67.8456 19.026L62.0522 22.9335ZM5.689 42.3013L5.6889 42.3009L5.689 42.3013Z" stroke="white" stroke-width="3"/>
</svg>
