<svg
	width="21"
	height="30"
	viewBox="0 0 21 30"
	fill="none"
	xmlns="http://www.w3.org/2000/svg"
>
	<g filter="url(#filter0_d_293_174)">
		<path
			d="M16.008 3.94871C15.5455 1.91902 14.3821 0.267016 14.2218 0C13.9673 0.378212 13.0361 1.83529 12.5616 3.44812C12.0433 5.25319 11.9654 6.85411 12.1415 8.42422C12.3164 10.0006 12.9825 11.621 12.9825 11.621C13.3363 12.4653 13.8669 13.3781 14.2125 13.8254C14.7206 13.1682 15.8891 11.2088 16.2558 8.65265C16.4598 7.22565 16.4701 5.9784 16.008 3.94871ZM14.2056 13.3165C13.9776 12.888 13.6238 12.0747 13.5917 10.8089C13.5845 9.59256 14.0757 8.5445 14.2191 8.32749C14.3465 8.54479 14.7675 9.45749 14.8164 10.7048C14.8492 11.9211 14.4421 12.8824 14.2056 13.3165ZM15.8688 7.39247C15.8504 8.16815 15.7567 8.98713 15.6378 9.47716C15.6812 8.63333 15.5811 7.44797 15.388 6.51697C15.1949 5.59213 14.647 4.04012 14.209 3.32598C13.8029 4.00809 13.302 5.34784 13.0391 6.50792C12.775 7.668 12.7658 9.07654 12.7653 9.49849C12.696 9.14476 12.5232 7.87244 12.5739 6.60041C12.6163 5.55178 12.8642 4.46617 12.9998 3.96989C13.5173 2.31368 14.1019 1.25335 14.2117 1.08589C14.3211 1.25356 15.0541 2.56379 15.4335 3.93564C15.8109 5.30741 15.8859 6.62303 15.8688 7.39247Z"
			fill="white"
		/>
		<path
			d="M15.0166 14.133L11.5151 14.1287L11.5123 16.4837C11.5154 16.4837 11.5179 16.4775 11.521 16.4775C12.3469 15.6503 13.6848 15.652 14.5094 16.4812C15.3333 17.3043 15.3317 18.6456 14.5057 19.4729C14.502 19.479 14.4983 19.479 14.4946 19.4852C14.4903 19.4852 14.486 19.4914 14.4823 19.4976C13.6582 20.3124 12.5824 20.7191 11.5072 20.7178C10.427 20.7165 9.34728 20.3073 8.52457 19.478C7.07373 18.0237 6.90448 15.7673 8.01379 14.1245C8.16322 13.9021 8.33549 13.6922 8.53182 13.4947C9.35655 12.6673 10.4372 12.2607 11.5174 12.262L11.5243 6.6001C7.37368 6.59508 4.0051 9.9597 4.00001 14.1196C3.99498 18.2795 7.35544 21.6585 11.506 21.6635C13.6701 21.6661 15.6208 20.7475 16.9938 19.2843L17 14.1353L15.0166 14.133Z"
			fill="white"
		/>
	</g>
	<defs>
		<filter
			id="filter0_d_293_174"
			x="0"
			y="0"
			width="21"
			height="29.6635"
			filterUnits="userSpaceOnUse"
			color-interpolation-filters="sRGB"
		>
			<feFlood flood-opacity="0" result="BackgroundImageFix" />
			<feColorMatrix
				in="SourceAlpha"
				type="matrix"
				values="0 0 0 0 0 0 0 0 0 0 0 0 0 0 0 0 0 0 127 0"
				result="hardAlpha"
			/>
			<feOffset dy="4" />
			<feGaussianBlur stdDeviation="2" />
			<feColorMatrix
				type="matrix"
				values="0 0 0 0 0 0 0 0 0 0 0 0 0 0 0 0 0 0 0.25 0"
			/>
			<feBlend
				mode="normal"
				in2="BackgroundImageFix"
				result="effect1_dropShadow_293_174"
			/>
			<feBlend
				mode="normal"
				in="SourceGraphic"
				in2="effect1_dropShadow_293_174"
				result="shape"
			/>
		</filter>
	</defs>
</svg>
